<?xml version="1.0" encoding="UTF-8"?>
<svg xmlns="http://www.w3.org/2000/svg" id="Layer_1" data-name="Layer 1" viewBox="0 0 24 24" width="512" height="512"
    fill="rgba(241,207,105,0.732)">
    <path
        d="M 17.1 12.1 l -1.6 1.6 c -0.2 0.2 -0.5 0.3 -0.7 0.3 s -0.5 -0.1 -0.7 -0.3 c -0.4 -0.4 -0.4 -1 0 -1.4 l 1.3 -1.3 h -6.8 l 1.3 1.3 c 0.4 0.4 0.4 1 0 1.4 c -0.2 0.2 -0.5 0.3 -0.7 0.3 s -0.5 -0.1 -0.7 -0.3 l -1.6 -1.6 c -1.1 -1.1 -1.1 -3 0 -4.2 l 1.6 -1.6 c 0.4 -0.4 1 -0.4 1.4 0 c 0.4 0.4 0.4 1 0 1.4 l -1.3 1.3 h 6.8 l -1.3 -1.3 c -0.4 -0.4 -0.4 -1 0 -1.4 c 0.4 -0.4 1 -0.4 1.4 0 l 1.6 1.6 c 1.1 1.1 1.1 3 0 4.2 Z M 5 5 c 1.4 0 2.5 -1.1 2.5 -2.5 S 6.4 0 5 0 S 2.5 1.1 2.5 2.5 s 1.1 2.5 2.5 2.5 Z m 2.3 10.3 c -0.1 -0.1 -1.9 -1.8 -1.9 -1.8 c -1.9 -1.9 -1.9 -5.1 0 -7 c 0.2 -0.2 0.1 -0.5 -0.2 -0.5 h -1.3 C 1.8 6 0 7.8 0 10 v 3 c 0 1.5 0.8 2.8 2 3.5 v 6.5 c 0 0.6 0.5 1 1 1 s 1 -0.5 1 -1 v -6 h 2 v 6 c 0 0.6 0.5 1 1 1 s 1 -0.5 1 -1 v -6.2 c 0 -0.6 -0.2 -1.1 -0.7 -1.5 Z M 20 6 h -1.3 c -0.3 0 -0.4 0.3 -0.2 0.5 c 1.9 1.9 1.9 5.1 0 7 c 0 0 -1.8 1.8 -1.9 1.8 c -0.5 0.4 -0.7 0.9 -0.7 1.5 v 6.2 c 0 0.6 0.5 1 1 1 s 1 -0.5 1 -1 v -6 h 2 v 6 c 0 0.6 0.5 1 1 1 s 1 -0.5 1 -1 v -6.5 c 1.2 -0.7 2 -2 2 -3.5 v -3 c 0 -2.2 -1.8 -4 -4 -4 Z m -1 -1 c 1.4 0 2.5 -1.1 2.5 -2.5 s -1.1 -2.5 -2.5 -2.5 s -2.5 1.1 -2.5 2.5 s 1.1 2.5 2.5 2.5 Z" />
</svg>